<svg xmlns="http://www.w3.org/2000/svg" style="display:none">
  <symbol id="icon-search" viewBox="0 0 18 18">
    <path
      stroke="currentColor"
      stroke-linecap="round"
      stroke-linejoin="round"
      stroke-width="2"
      d="M8.25 14.25a6 6 0 1 0 0-12 6 6 0 0 0 0 12M15.75 15.75l-3.263-3.262"
    />
  </symbol>
  <symbol id="icon-eye-off" viewBox="0 0 22 22">
    <g
    stroke="currentColor"
    stroke-linecap="round"
    stroke-linejoin="round"
    stroke-width="2"
    clip-path="url(#clip-eye-off)"
  >
      <path d="M16.445 16.445A9.23 9.23 0 0 1 11 18.333C4.584 18.333.917 11 .917 11a16.9 16.9 0 0 1 4.638-5.445m3.52-1.668A8.4 8.4 0 0 1 11 3.667C17.417 3.667 21.084 11 21.084 11a17 17 0 0 1-1.98 2.924m-6.16-.98a2.75 2.75 0 1 1-3.887-3.887M.917.917l20.167 20.166"/>
    </g>
    <defs>
      <clipPath id="icon-eye-off">
        <path fill="#fff" d="M0 0h22v22H0z"/>
      </clipPath>
    </defs>
  </symbol>
  <symbol id="icon-eye" viewBox="0 0 22 22">
    <g
    stroke="currentColor"
    stroke-linecap="round"
    stroke-linejoin="round"
    stroke-width="2"
    clip-path="url(#clip-eye)"
  >
      <path d="M.916 11s3.667-7.333 10.083-7.333S21.083 11 21.083 11s-3.667 7.333-10.084 7.333S.916 11 .916 11"/>
      <path d="M11 13.75a2.75 2.75 0 1 0 0-5.5 2.75 2.75 0 0 0 0 5.5"/>
    </g>
    <defs>
      <clipPath id="icon-eye">
        <path fill="#fff" d="M0 0h22v22H0z"/>
      </clipPath>
    </defs>
  </symbol>
  <symbol id="icon-heart" viewBox="0 0 18 18">
    <path
    stroke="currentColor"
    stroke-linecap="round"
    stroke-linejoin="round"
    stroke-width="1.5"
    d="M15.63 3.458a4.125 4.125 0 0 0-5.834 0L9 4.253l-.795-.796A4.126 4.126 0 0 0 2.37 9.294l.795.795L9 15.923l5.835-5.835.795-.795a4.127 4.127 0 0 0 0-5.835"
  />
  </symbol>
  <symbol id="icon-star" viewBox="0 0 15 14">
    <path
    fill="#ffc531"
    stroke="#ffc531"
    stroke-width="1.2"
    d="M8.89 4.126c.159.301.449.512.785.57l3.8.656-2.688 2.768a1.1 1.1 0 0 0-.3.923l.55 3.817-3.462-1.701-.117-.05a1.1 1.1 0 0 0-.736 0l-.118.05-3.461 1.701.55-3.817a1.1 1.1 0 0 0-.3-.923L.704 5.352l3.8-.656a1.1 1.1 0 0 0 .786-.57L7.09.715z"
  />
  </symbol>
  <symbol id="icon-chevron-down" viewBox="0 0 18 18">
  <path
    d="m4.5 6.75 4.5 4.5 4.5-4.5"
    stroke="#262626"
    stroke-width="2"
    stroke-linecap="round"
    stroke-linejoin="round"
    fill="none"
  />
</symbol>
</svg>