<svg xmlns="http://www.w3.org/2000/svg" style="display:none">
  <symbol id="icon-search" viewBox="0 0 18 18">
    <path
      stroke="currentColor"
      stroke-linecap="round"
      stroke-linejoin="round"
      stroke-width="2"
      d="M8.25 14.25a6 6 0 1 0 0-12 6 6 0 0 0 0 12M15.75 15.75l-3.263-3.262"
    />
  </symbol>
  <symbol id="icon-eye-off" viewBox="0 0 22 22">
    <g
    stroke="currentColor"
    stroke-linecap="round"
    stroke-linejoin="round"
    stroke-width="2"
    clip-path="url(#clip-eye-off)"
  >
      <path d="M16.445 16.445A9.23 9.23 0 0 1 11 18.333C4.584 18.333.917 11 .917 11a16.9 16.9 0 0 1 4.638-5.445m3.52-1.668A8.4 8.4 0 0 1 11 3.667C17.417 3.667 21.084 11 21.084 11a17 17 0 0 1-1.98 2.924m-6.16-.98a2.75 2.75 0 1 1-3.887-3.887M.917.917l20.167 20.166"/>
    </g>
    <defs>
      <clipPath id="icon-eye-off">
        <path fill="#fff" d="M0 0h22v22H0z"/>
      </clipPath>
    </defs>
  </symbol>
  <symbol id="icon-eye" viewBox="0 0 22 22">
    <g
    stroke="currentColor"
    stroke-linecap="round"
    stroke-linejoin="round"
    stroke-width="2"
    clip-path="url(#clip-eye)"
  >
      <path d="M.916 11s3.667-7.333 10.083-7.333S21.083 11 21.083 11s-3.667 7.333-10.084 7.333S.916 11 .916 11"/>
      <path d="M11 13.75a2.75 2.75 0 1 0 0-5.5 2.75 2.75 0 0 0 0 5.5"/>
    </g>
    <defs>
      <clipPath id="icon-eye">
        <path fill="#fff" d="M0 0h22v22H0z"/>
      </clipPath>
    </defs>
  </symbol>
</svg>